<?xml version="1.0" standalone="no"?>
<!DOCTYPE svg PUBLIC "-//W3C//DTD SVG 20010904//EN"
 "http://www.w3.org/TR/2001/REC-SVG-20010904/DTD/svg10.dtd">
<svg version="1.0" xmlns="http://www.w3.org/2000/svg"
 width="700.000000pt" height="700.000000pt" viewBox="0 0 700.000000 700.000000"
 preserveAspectRatio="xMidYMid meet">
<metadata>
Created by potrace 1.11, written by Peter Selinger 2001-2013
</metadata>
<g transform="translate(0.000000,700.000000) scale(0.100000,-0.100000)"
fill="#000000" stroke="none">
<path d="M2178 6489 c-65 -15 -145 -74 -200 -149 -34 -46 -76 -131 -134 -265
-73 -172 -97 -213 -178 -315 -106 -132 -121 -171 -101 -260 13 -60 13 -108 0
-179 -18 -90 -66 -242 -106 -329 -16 -35 -29 -65 -29 -67 0 -7 -65 -138 -91
-182 -13 -23 -58 -78 -99 -122 -83 -90 -119 -149 -114 -189 13 -112 15 -196 4
-248 -29 -142 -142 -445 -220 -590 -18 -32 -61 -99 -96 -148 -35 -49 -65 -99
-65 -110 -1 -12 -2 -70 -3 -131 -1 -60 -4 -119 -8 -130 -3 -11 -14 -47 -23
-80 -21 -71 -83 -235 -120 -320 -71 -161 -124 -254 -234 -414 -64 -93 -74
-129 -58 -201 14 -58 14 -82 3 -195 -10 -100 -16 -136 -26 -170 -20 -66 -25
-105 -24 -220 0 -133 17 -207 79 -341 131 -285 439 -542 730 -609 17 -4 39
-10 50 -13 11 -4 880 -8 1930 -9 1555 -1 1921 1 1971 12 149 32 308 121 426
238 121 120 165 202 238 443 28 93 85 279 127 414 41 135 80 265 88 290 7 25
43 144 80 265 37 121 71 234 75 250 4 17 22 75 40 130 17 55 33 105 34 110 1
6 12 42 24 80 12 39 44 147 73 240 28 94 62 206 76 250 14 44 29 96 35 115 5
19 28 94 50 165 22 72 41 137 43 145 2 8 17 58 33 110 17 52 66 214 110 360
44 146 97 319 117 384 52 172 66 240 66 320 -1 197 -102 362 -277 451 l-49 25
-7 -98 c-4 -72 -16 -131 -46 -227 -23 -71 -73 -236 -112 -365 -39 -129 -110
-361 -156 -515 -47 -154 -92 -300 -99 -325 -25 -84 -116 -385 -141 -465 -14
-44 -45 -145 -69 -225 -24 -80 -70 -233 -103 -340 -33 -107 -77 -251 -97 -320
-20 -69 -43 -143 -51 -165 -7 -22 -57 -184 -110 -360 -225 -748 -215 -718
-256 -766 -32 -35 -104 -82 -163 -105 -49 -19 -96 -19 -1980 -19 -2049 0
-1960 -2 -2092 46 -111 40 -191 114 -230 213 -40 99 -25 178 40 213 38 21 34
21 2257 26 1033 3 1449 7 1485 15 241 56 321 135 445 447 26 66 66 179 88 250
43 136 184 602 232 765 16 52 61 201 100 330 40 129 81 264 92 300 11 36 23
79 28 95 5 17 22 75 39 130 17 55 61 204 100 330 38 127 85 282 104 345 19 63
40 131 45 150 6 19 35 116 65 215 115 373 159 521 169 555 5 19 30 100 55 180
60 193 80 292 77 370 -9 228 -144 416 -355 492 l-64 23 -1550 3 c-1342 2
-1562 1 -1640 -12 -68 -12 -101 -13 -135 -5 -61 14 -167 18 -212 8z m3006
-1014 c31 -40 29 -64 -13 -198 -58 -185 -68 -203 -131 -247 l-35 -25 -1223 -3
c-1085 -2 -1226 -1 -1252 13 -17 9 -31 21 -32 28 -6 52 0 87 39 206 46 140 61
172 97 205 53 47 5 45 1308 43 1214 -2 1227 -2 1242 -22z m-349 -985 c14 -5
32 -24 39 -41 16 -37 14 -46 -46 -229 -47 -142 -82 -189 -155 -209 -29 -8
-390 -10 -1251 -9 -1174 3 -1211 4 -1231 22 -32 29 -26 84 28 244 51 149 70
180 131 212 33 18 87 19 1247 20 785 0 1221 -3 1238 -10z"/>
</g>
</svg>
