<svg viewBox="0 0 512 512" xmlns:xlink="http://www.w3.org/1999/xlink" height="512pt" xmlns="http://www.w3.org/2000/svg" width="512pt" version="1.1"><defs>
<path d="M0.00 0.00 L512.00 0.00 L512.00 512.00 L0.00 512.00 L0.00 0.00" id="p1" />
<path d="M222.58 97.43 C224.45 94.75 229.05 94.03 231.31 96.59 C235.26 100.05 239.03 103.78 241.41 108.52 C248.16 114.08 253.90 120.81 261.02 125.94 C265.59 124.26 268.64 120.30 272.13 117.13 C277.74 111.74 284.26 107.09 288.49 100.44 C289.48 99.05 289.96 96.89 291.97 96.68 C294.14 96.70 297.09 96.56 298.25 98.82 C298.78 101.02 298.08 103.52 299.54 105.46 C302.95 110.77 304.77 117.03 304.76 123.35 C308.05 124.62 310.93 122.16 313.74 120.83 C320.67 117.30 324.43 109.74 331.44 106.30 C333.88 104.78 337.31 104.41 339.63 106.36 C342.65 114.39 344.90 122.88 344.96 131.52 C352.80 131.60 358.73 125.99 364.41 121.37 C369.52 117.29 371.39 109.74 377.94 107.40 C379.55 107.50 382.11 107.30 382.71 109.24 C385.77 118.32 389.66 127.50 389.06 137.29 C395.81 136.59 400.79 131.62 406.43 128.41 C409.61 126.68 411.52 123.50 414.09 121.08 C416.31 118.96 419.74 118.01 422.70 118.92 C425.12 121.22 422.91 124.29 422.94 127.02 C422.59 132.20 422.84 137.41 422.80 142.60 C430.85 139.35 437.06 132.90 444.80 129.08 C447.68 129.37 451.06 129.57 453.20 131.79 C455.43 137.63 452.13 143.47 449.89 148.75 C448.30 151.80 448.34 155.49 446.22 158.27 C440.79 166.61 437.22 176.11 430.83 183.83 C420.70 203.60 416.28 225.58 409.35 246.54 C402.70 262.06 404.10 279.35 400.49 295.58 C397.36 297.71 393.40 296.30 390.10 297.86 C385.85 299.57 381.63 301.35 377.31 302.88 C372.24 304.31 366.78 305.76 361.55 304.36 C362.76 288.47 366.69 272.20 362.52 256.42 C361.71 252.92 359.46 249.67 359.97 245.95 C360.59 238.58 360.74 231.14 362.00 223.84 C358.79 221.49 354.65 221.38 350.98 220.17 C344.97 218.73 339.24 215.84 332.95 215.86 C321.53 215.50 310.23 213.59 299.08 211.20 C271.56 207.39 243.71 207.05 215.97 206.57 C207.00 206.87 198.00 205.81 189.06 206.83 C176.91 208.06 164.66 208.07 152.54 209.63 C152.47 219.92 148.92 229.72 144.94 239.07 C142.01 246.74 137.94 254.19 137.26 262.52 C136.41 271.65 138.31 280.70 138.88 289.78 C133.52 291.59 127.89 292.73 122.82 295.33 C122.28 295.61 121.20 296.16 120.66 296.43 C118.95 295.96 116.95 295.79 115.80 294.25 C109.02 285.70 105.80 274.81 105.06 264.04 C104.98 256.70 105.02 249.36 105.04 242.02 C105.37 229.77 105.90 217.10 101.56 205.41 C96.12 190.83 87.12 177.73 76.38 166.55 C73.41 163.62 70.84 160.01 66.85 158.41 C63.45 156.88 59.34 156.13 57.21 152.75 C55.39 151.76 52.66 151.48 52.00 149.19 C52.45 147.39 54.49 147.16 55.98 146.80 C72.38 145.89 88.91 147.13 104.93 150.85 C106.56 151.84 107.12 149.98 107.59 148.91 C112.23 138.18 111.42 125.88 108.01 114.93 C106.97 112.62 109.88 110.69 111.93 111.08 C116.34 111.46 120.03 114.05 123.73 116.22 C129.99 119.55 136.33 122.85 143.21 124.67 C146.63 126.94 150.29 128.97 153.14 131.99 C156.54 131.39 156.10 127.54 156.98 125.00 C159.12 118.43 160.48 111.60 160.73 104.68 C162.74 103.90 164.88 103.61 167.02 103.54 C174.60 113.03 185.09 119.60 193.12 128.68 C199.59 124.84 205.43 119.93 210.10 114.01 C214.36 108.56 218.36 102.91 222.58 97.43" id="p2" />
<path d="M189.06 206.83 C198.00 205.81 207.00 206.87 215.97 206.57 C243.71 207.05 271.56 207.39 299.08 211.20 C310.23 213.59 321.53 215.50 332.95 215.86 C339.24 215.84 344.97 218.73 350.98 220.17 C354.65 221.38 358.79 221.49 362.00 223.84 C360.74 231.14 360.59 238.58 359.97 245.95 C359.46 249.67 361.71 252.92 362.52 256.42 C366.69 272.20 362.76 288.47 361.55 304.36 C366.78 305.76 372.24 304.31 377.31 302.88 C374.88 330.57 362.30 357.11 343.20 377.21 C325.31 396.17 301.48 409.43 275.90 414.50 C247.96 420.12 218.13 416.28 192.73 403.27 C163.09 388.36 139.71 361.41 129.41 329.84 C125.54 318.73 123.67 307.03 122.82 295.33 C127.89 292.73 133.52 291.59 138.88 289.78 C138.31 280.70 136.41 271.65 137.26 262.52 C137.94 254.19 142.01 246.74 144.94 239.07 C148.92 229.72 152.47 219.92 152.54 209.63 C164.66 208.07 176.91 208.06 189.06 206.83" id="p3" />
<path d="M186.42 244.58 C193.51 241.78 202.20 243.96 206.97 249.95 C212.82 256.65 212.37 267.79 205.96 273.98 C200.05 280.65 188.96 281.39 182.05 275.87 C176.16 271.50 173.55 263.41 175.58 256.40 C177.15 251.08 181.26 246.60 186.42 244.58" id="p4" />
<path d="M302.37 244.60 C309.03 241.97 317.18 243.66 322.07 248.95 C327.16 254.01 328.48 262.19 325.58 268.70 C322.35 276.49 313.23 281.16 305.01 279.12 C295.66 277.26 289.25 267.19 291.20 257.90 C292.40 251.97 296.75 246.81 302.37 244.60" id="p5" />
<path d="M176.96 315.44 C225.99 315.44 275.01 315.44 324.03 315.45 C324.17 331.21 318.92 346.92 309.47 359.51 C300.02 372.17 286.44 381.69 271.26 386.11 C252.91 391.48 232.45 389.49 215.64 380.30 C192.17 367.92 176.58 342.03 176.96 315.44" id="p6" /></defs><g stroke-width="10pt">
<use stroke="#fff" xlink:href="#p1" />
<use stroke="#141414" xlink:href="#p2" />
<use stroke="#e7b38e" xlink:href="#p3" />
<use stroke="#141414" xlink:href="#p4" />
<use stroke="#141414" xlink:href="#p5" />
<use stroke="#141414" xlink:href="#p6" /></g>
<g>
<use xlink:href="#p1" fill="#fff" />
<use xlink:href="#p2" fill="#141414" />
<use xlink:href="#p3" fill="#e7b38e" />
<use xlink:href="#p4" fill="#141414" />
<use xlink:href="#p5" fill="#141414" />
<use xlink:href="#p6" fill="#141414" /></g></svg>